<svg width="67" height="64" viewBox="0 0 67 64" fill="none" xmlns="http://www.w3.org/2000/svg">
<path fill-rule="evenodd" clip-rule="evenodd" d="M6.98352 0H60.0164L67 18.9842V25.0435C67 27.832 65.9492 30.4102 64.2083 32.3402V64H2.79167V32.3402C1.05093 30.4102 0 27.832 0 25.0435V18.9842L6.98352 0ZM56.5312 35.7766C57.2504 35.7766 57.9505 35.7031 58.625 35.5636V58.4348H44.6667V41.7391H22.3333V58.4348H8.375V35.5636C9.04954 35.7031 9.74947 35.7766 10.4688 35.7766C13.5351 35.7766 16.2497 34.4428 18.1458 32.3402C20.042 34.4428 22.7566 35.7766 25.8229 35.7766C28.8893 35.7766 31.6039 34.4428 33.5 32.3402C35.3961 34.4428 38.1107 35.7766 41.1771 35.7766C44.2435 35.7766 46.9581 34.4428 48.8542 32.3402C50.7503 34.4428 53.4649 35.7766 56.5312 35.7766ZM27.9167 58.4348H39.0833V47.3043H27.9167V58.4348ZM61.4167 22.2609V25.0435C61.4167 27.9986 59.1297 30.2113 56.5312 30.2113C53.9328 30.2113 51.6458 27.9986 51.6458 25.0435V22.2609H61.4167ZM60.2114 16.6957L56.117 5.56522H10.8831L6.7887 16.6957H60.2114ZM5.58333 22.2609V25.0435C5.58333 27.9986 7.87023 30.2113 10.4688 30.2113C13.0673 30.2113 15.3542 27.9986 15.3542 25.0435V22.2609H5.58333ZM20.9375 22.2609V25.0435C20.9375 27.9986 23.2244 30.2113 25.8229 30.2113C28.4214 30.2113 30.7083 27.9986 30.7083 25.0435V22.2609H20.9375ZM36.2917 22.2609V25.0435C36.2917 27.9986 38.5786 30.2113 41.1771 30.2113C43.7756 30.2113 46.0625 27.9986 46.0625 25.0435V22.2609H36.2917Z" fill="#E70066"/>
</svg>
